<svg xmlns="http://www.w3.org/2000/svg" width="80" height="25" viewBox="0 0 80 25">
    <path fill="#00adb7" fill-rule="evenodd" d="M9.503 10.226c4.25.79 8.986 2.322 8.63 8-.21 4.613-4.622 6.774-9.05 6.774-3.701 0-7.37-1.984-9.083-5.855l3.653-1.629c1.066 2.323 3.248 3.597 5.51 3.597 2.473 0 4.833-1.065 4.978-3.178.21-2.741-2.505-3.451-5.478-3.903C4.59 13.42.469 11.532.436 6.71.711 2.29 4.897 0 9.147 0c3.637 0 7.063 1.403 8.744 5.226l-3.604 1.58c-1.034-2.258-2.91-3.112-5.14-3.112-2.36 0-4.59 1.096-4.735 3.145-.178 2.129 2.521 2.903 5.091 3.387zM24.646.403v7.113c4.186-1.774 10.15-.21 10.15 5.5v11.597h-3.733v-11.63c0-3.112-4.38-3.209-6.417-1.95v13.58h-3.765V.403h3.765zM51.523 23.5c-5.866 2.532-13.915 2.29-13.915-4.694V6.903h3.766v11.968c.129 2.935 4.186 3.42 6.416 2.226V6.903h3.733V23.5zm10.505 1.306c-4.153.613-7.676-1.129-7.676-6.193V.403h3.733v6.5h3.394v3.758h-3.394v7.904c0 2.806 1.89 2.983 3.943 2.983v3.258zm9.342 0c-4.154.613-7.677-1.129-7.677-6.193V.403h3.733v6.5h3.394v3.758h-3.394v7.904c0 2.806 1.891 2.983 3.944 2.983v3.258zm8.63-.048c-4.38 0-6.853-2.323-6.853-6.08V.402h3.766v18.274c0 1.436.954 2.565 3.087 2.565v3.516z"/>
</svg>
